<svg width="1438" height="2402" viewBox="0 0 1438 2402" fill="none" xmlns="http://www.w3.org/2000/svg">
<path d="M811 19.9999L1155.25 20C1300.36 20 1418 137.637 1418 282.75V282.75C1418 427.863 1300.36 545.5 1155.25 545.5H370.002C176.977 545.5 19.4047 701.979 20.5001 895V895V895C21.6836 1103.53 189.965 1273 398.502 1273H1068C1261.3 1273 1418 1430.45 1418 1623.75V1623.75C1418 1817.05 1261.33 1974.5 1068.03 1974.5C938.697 1974.5 804.285 1974.5 724.343 1974.5C685.683 1974.5 654.5 2005.83 654.5 2044.49C654.5 2122.11 654.5 2214.85 654.5 2290C654.5 2297.79 654.5 2309.22 654.5 2321.43C654.5 2355.17 626.8 2382.3 593.067 2381.59C493.892 2379.51 309.5 2376.52 309.5 2383" stroke="#F58665" stroke-opacity="0.1" stroke-width="40"/>
</svg>
