<svg width="1403" height="2368" viewBox="0 0 1403 2368" fill="none" xmlns="http://www.w3.org/2000/svg">
<path d="M793 2.99994L1137.25 2.99996C1282.36 2.99998 1400 120.637 1400 265.75V265.75C1400 410.863 1282.36 528.5 1137.25 528.5H352.002C158.977 528.5 1.40472 684.979 2.50013 878V878V878C3.68356 1086.53 171.965 1256 380.502 1256H1050C1243.3 1256 1400 1413.45 1400 1606.75V1606.75C1400 1800.05 1243.33 1957.5 1050.03 1957.5C920.697 1957.5 786.285 1957.5 706.343 1957.5C667.683 1957.5 636.5 1988.83 636.5 2027.49C636.5 2105.11 636.5 2197.85 636.5 2273C636.5 2280.79 636.5 2292.22 636.5 2304.43C636.5 2338.17 608.8 2365.3 575.067 2364.59C475.892 2362.51 291.5 2359.52 291.5 2366" stroke="#F58665" stroke-width="5" stroke-dasharray="32 32"/>
</svg>
