<svg width="16" height="15" viewBox="0 0 16 15" xmlns="http://www.w3.org/2000/svg">
    <path
        d="M13.8532 12.6213C14.4613 12.526 15.7193 12.3061 15.96 11.7524C16.0814 11.4672 15.908 11.2353 15.6867 11.2V11.1993C13.5479 10.8475 12.5838 8.65776 12.5445 8.56447C11.9517 7.50227 13.5605 7.68086 14.1932 7.03314C14.8106 6.39809 13.8205 5.7104 13.2012 6.00227C12.9472 6.12155 12.5665 6.26015 12.3131 6.1442C12.3731 5.13865 12.5391 3.47139 12.1318 2.56113C10.7617 -0.506181 6.72138 -0.616799 4.84391 1.16375C3.36447 2.56579 3.54582 4.00715 3.6845 6.1442C3.22446 6.34478 2.76976 5.94629 2.43841 5.94629C2.09038 5.94629 1.68569 6.17219 1.62035 6.51271C1.53768 6.95984 2.02371 7.24772 2.44441 7.41364C3.16113 7.69485 3.84251 7.77815 3.46448 8.54581C3.46115 8.5518 3.45848 8.5578 3.45648 8.5638C2.92111 9.78592 1.75236 10.9607 0.313589 11.198C0.0815728 11.2359 -0.0771052 11.4805 0.0389031 11.7504V11.7517C0.27692 12.3061 1.54701 12.528 2.14639 12.6213C2.33173 12.9678 2.18972 13.6522 2.76376 13.6522C2.98711 13.6522 3.41914 13.5063 3.97052 13.5063C4.77391 13.5063 5.04793 13.6815 5.69197 14.136C6.35335 14.6031 7.08007 15.0596 7.98347 14.9936C8.9242 15.0523 9.62292 14.6198 10.3083 14.1373L10.309 14.136C10.977 13.6662 11.4544 13.319 12.8691 13.5969C13.9159 13.7995 13.6105 13.0911 13.8532 12.6213Z" />
</svg>