<svg width="15" height="15" viewBox="0 0 15 15" xmlns="http://www.w3.org/2000/svg">
    <g clip-path="url(#clip0_671_1300)">
        <path
            d="M10.2867 0H4.21148C1.88926 0 0 1.88926 0 4.21148V10.2867C0 12.6089 1.88926 14.4981 4.21148 14.4981H10.2867C12.6089 14.4981 14.4981 12.6089 14.4981 10.2867V4.21148C14.4981 1.88926 12.6089 0 10.2867 0ZM13.3655 10.2867C13.3655 11.9843 11.9843 13.3655 10.2867 13.3655H4.21148C2.51381 13.3655 1.13267 11.9843 1.13267 10.2867V4.21148C1.13267 2.51381 2.51381 1.13267 4.21148 1.13267H10.2867C11.9843 1.13267 13.3655 2.51381 13.3655 4.21148V10.2867Z" />
        <path
            d="M7.2495 3.34131C5.09477 3.34131 3.3418 5.09428 3.3418 7.24901C3.3418 9.40374 5.09477 11.1567 7.2495 11.1567C9.40423 11.1567 11.1572 9.40374 11.1572 7.24901C11.1572 5.09428 9.40423 3.34131 7.2495 3.34131ZM7.2495 10.024C5.71935 10.024 4.47446 8.77916 4.47446 7.24901C4.47446 5.71886 5.71935 4.47398 7.2495 4.47398C8.77965 4.47398 10.0245 5.71886 10.0245 7.24901C10.0245 8.77916 8.77965 10.024 7.2495 10.024Z" />
        <path
            d="M11.2148 3.85093C11.5275 3.85093 11.7811 3.59737 11.7811 3.2846C11.7811 2.97182 11.5275 2.71826 11.2148 2.71826C10.902 2.71826 10.6484 2.97182 10.6484 3.2846C10.6484 3.59737 10.902 3.85093 11.2148 3.85093Z" />
    </g>
    <defs>
        <clipPath id="clip0_671_1300">
            <rect width="14.4981" height="14.4981" />
        </clipPath>
    </defs>
</svg>