<svg width="365" height="790" viewBox="0 0 365 790" fill="none" xmlns="http://www.w3.org/2000/svg">
<path d="M203.75 20L261.38 20C307.438 20 344.775 57.3373 344.775 103.395V103.395C344.775 149.453 307.438 186.79 261.38 186.79H131.021C69.7564 186.79 19.8372 236.455 20.0917 297.719V297.719V297.719C20.3667 363.926 73.8593 417.694 140.067 417.694H233.45C294.933 417.694 344.775 467.536 344.775 529.019V529.019C344.775 590.503 294.913 640.345 233.43 640.345C220.104 640.345 207.491 640.345 196.896 640.345C180.568 640.345 167.39 653.578 167.39 669.906C167.39 692.892 167.39 718.96 167.39 740.482V740.482C167.39 756.614 154.017 769.529 137.89 769.16C115.034 768.638 87.2355 768.343 87.2355 770" stroke="#F58665" stroke-opacity="0.1" stroke-width="40"/>
<path d="M203.75 20L261.38 20C307.438 20 344.775 57.3373 344.775 103.395V103.395C344.775 149.453 307.438 186.79 261.38 186.79H131.021C69.7564 186.79 19.8372 236.455 20.0917 297.719V297.719V297.719C20.3667 363.926 73.8593 417.694 140.067 417.694H233.45C294.933 417.694 344.775 467.536 344.775 529.019V529.019C344.775 590.503 294.913 640.345 233.43 640.345C220.104 640.345 207.491 640.345 196.896 640.345C180.568 640.345 167.39 653.578 167.39 669.906C167.39 692.892 167.39 718.96 167.39 740.482V740.482C167.39 756.614 154.017 769.529 137.89 769.16C115.034 768.638 87.2355 768.343 87.2355 770" stroke="#F58665" stroke-width="5" stroke-dasharray="32 32"/>
</svg>
